<?xml version="1.0" encoding="UTF-8" standalone="no"?>
<svg
   xmlns:dc="http://purl.org/dc/elements/1.1/"
   xmlns:cc="http://creativecommons.org/ns#"
   xmlns:rdf="http://www.w3.org/1999/02/22-rdf-syntax-ns#"
   xmlns:svg="http://www.w3.org/2000/svg"
   xmlns="http://www.w3.org/2000/svg"
   xmlns:sodipodi="http://sodipodi.sourceforge.net/DTD/sodipodi-0.dtd"
   xmlns:inkscape="http://www.inkscape.org/namespaces/inkscape"
   viewBox="0 0 397.53488 316.56733"
   height="316.56732"
   width="397.53488"
   xml:space="preserve"
   id="svg2"
   version="1.1"
   sodipodi:docname="Logoywam-white.svg"
   inkscape:version="0.92.3 (2405546, 2018-03-11)"><sodipodi:namedview
     pagecolor="#ffffff"
     bordercolor="#666666"
     borderopacity="1"
     objecttolerance="10"
     gridtolerance="10"
     guidetolerance="10"
     inkscape:pageopacity="0"
     inkscape:pageshadow="2"
     inkscape:window-width="2591"
     inkscape:window-height="1513"
     id="namedview11"
     showgrid="false"
     inkscape:zoom="3.7464385"
     inkscape:cx="198.76744"
     inkscape:cy="158.28366"
     inkscape:window-x="0"
     inkscape:window-y="0"
     inkscape:window-maximized="0"
     inkscape:current-layer="svg2" /><metadata
     id="metadata8"><rdf:RDF><cc:Work
         rdf:about=""><dc:format>image/svg+xml</dc:format><dc:type
           rdf:resource="http://purl.org/dc/dcmitype/StillImage" /><dc:title></dc:title></cc:Work></rdf:RDF></metadata><defs
     id="defs6" /><g
     transform="matrix(1.3333333,0,0,-1.3333333,-2.6317733,318.28399)"
     id="g10"><g
       transform="scale(0.1)"
       id="g12"><path
         id="path14"
         style="fill:#231f20;fill-opacity:1;fill-rule:evenodd;stroke:none"
         d="m 1178.63,2387.13 c -280.239,0 -545.7,-35.76 -782.896,-99.65 152.36,23.35 312.653,35.81 478.082,35.81 1006.614,0 1817.844,-461.46 1817.844,-1030.94 0,-409.842 -472.29,-729.088 -1138.44,-815.166 901.92,5.613 1448.03,404.722 1448.03,879.336 0,569.2 -816,1030.61 -1822.62,1030.61 v 0 0" /><path
         id="path16"
         style="fill:#231f20;fill-opacity:1;fill-rule:evenodd;stroke:none"
         d="m 945.035,1602.91 c 142.265,0 277.035,-18.16 397.455,-50.59 -77.35,11.86 -158.72,18.18 -242.71,18.18 -511.034,0 -910.589,-234.59 -910.589,-523.75 0,-208.109 204.766,-399.191 876.789,-548.949 C 744.004,509.031 459.488,613.078 299.348,695.383 83.8633,806.133 19.7383,941.469 19.7383,1079.7 c 0,288.96 414.2617,523.21 925.2967,523.21 v 0 0" /><path
         id="path18"
         style="fill:#231f20;fill-opacity:1;fill-rule:evenodd;stroke:none"
         d="m 895.492,998.484 c 96.754,145.846 228.468,268.726 372.058,349.896 -37.78,-116.24 17.49,-410.915 199,-410.915 181.5,0 420.74,294.675 460.56,410.915 89.39,-81.17 139.06,-204.05 138.44,-349.896 -9.99,0.887 -20.19,1.336 -30.62,1.336 -284.62,0 -704.61,-554.472 -883.45,-986.945 0.74,0.707 2.08,6.9844 2.11,6.332 109.92,432.477 58.04,980.613 -226.59,980.613 -10.422,0 -20.93,-0.449 -31.508,-1.336 v 0 0" /><path
         id="path20"
         style="fill:#231f20;fill-opacity:1;fill-rule:evenodd;stroke:none"
         d="m 1368.53,1242.24 c 38.08,114.05 161.4,206.5 275.45,206.5 114.05,0 175.63,-92.45 137.55,-206.5 -38.08,-114.06 -161.4,-206.51 -275.45,-206.51 -114.05,0 -175.63,92.45 -137.55,206.51 v 0 0" /></g></g><path
     style="fill:#ffffff;stroke-width:0.26692018"
     d="m 151.94964,313.32673 c 0,-0.099 0.35262,-1.77054 0.78361,-3.71464 2.92742,-13.2052 4.60052,-25.47824 5.37599,-39.43549 0.35514,-6.39202 0.19893,-21.59659 -0.27561,-26.82548 -2.02528,-22.31645 -7.1759,-38.09469 -15.78383,-48.35166 -3.54431,-4.22331 -9.00811,-7.84286 -13.81092,-9.1492 -2.69373,-0.73269 -6.9934,-1.17027 -9.35248,-0.95182 l -1.96704,0.18214 1.28337,-1.82747 c 10.76539,-15.32963 22.69694,-27.40194 37.22273,-37.66185 2.92777,-2.06795 10.43059,-6.81361 10.54924,-6.67257 0.0308,0.0367 -0.18337,1.14767 -0.47602,2.46892 -0.66752,3.0138 -0.8084,12.41458 -0.24601,16.41559 1.7553,12.48766 6.112,22.71131 12.29004,28.84044 4.7632,4.72549 9.22084,6.64479 15.45716,6.65531 10.9385,0.0185 24.35887,-7.80374 38.7589,-22.591 9.69586,-9.9566 18.6244,-22.28567 21.90991,-30.25456 0.3329,-0.80743 0.64672,-1.52062 0.69739,-1.58487 0.15349,-0.19465 2.41027,2.10877 4.56021,4.65446 8.19676,9.70552 12.96299,22.85079 13.58316,37.46234 l 0.17391,4.09733 -1.97807,-0.18075 c -2.67423,-0.24436 -7.12754,0.25144 -10.82757,1.20545 -15.52655,4.00335 -34.49354,18.528 -54.1868,41.49548 -20.03676,23.36809 -39.85597,54.70306 -51.9983,82.21141 -1.49051,3.37674 -1.74297,3.88549 -1.74297,3.51249 z"
     id="path3756"
     inkscape:connector-curvature="0" /><path
     style="fill:#ffffff;stroke-width:0.26692018"
     d="m 193.0629,179.55741 c -6.65073,-1.50618 -11.43591,-5.59342 -13.4894,-11.52193 -3.1046,-8.96315 0.59527,-20.62199 9.45582,-29.79663 7.57938,-7.84806 16.82886,-12.40586 26.1804,-12.90074 10.29707,-0.54491 18.08129,4.59152 20.48002,13.51376 0.69195,2.57376 0.62638,7.94072 -0.13438,10.99909 -3.4127,13.71954 -15.46207,25.42121 -30.22168,29.34959 -2.7039,0.71966 -9.76237,0.92493 -12.27078,0.35686 z"
     id="path3758"
     inkscape:connector-curvature="0" /><path
     style="fill:#ffffff;stroke-width:0.26692018"
     d="M 132.73139,251.46199 C 101.53498,249.40094 68.150688,240.52219 40.510472,226.9353 28.360212,220.96269 21.016587,215.92334 14.19532,208.87731 10.115787,204.66335 7.2025852,200.50972 4.7701548,195.43895 -0.34065947,184.78468 -1.2850127,172.03555 2.2518849,161.44137 6.5487402,148.57085 17.390086,136.47313 33.251004,126.84982 63.900105,108.25408 109.99586,100.59608 153.68462,106.84191 c 5.70173,0.81513 13.32872,2.24885 16.94943,3.18615 2.26275,0.58576 2.51812,0.59311 -4.53764,-0.13053 -18.74131,-1.92212 -38.32028,-1.35972 -56.18669,1.61395 -31.034751,5.16538 -56.551665,16.87483 -72.22814,33.14475 -7.762367,8.05622 -12.365638,16.34143 -14.422918,25.95914 -0.868482,4.06013 -0.878041,11.98629 -0.01921,15.93204 2.717097,12.48329 10.795868,22.87113 25.278628,32.50375 17.855334,11.87575 44.548589,21.9184 82.34487,30.98014 3.89036,0.93273 6.65298,1.6858 6.13916,1.67349 -0.51382,-0.0123 -2.43564,-0.12156 -4.27072,-0.2428 z"
     id="path3760"
     inkscape:connector-curvature="0" /><path
     style="fill:#ffffff;stroke-width:0.26692018"
     d="m 213.6082,253.47977 c 44.06607,-6.93487 81.90116,-21.85866 107.30191,-42.32451 16.51785,-13.30873 27.0648,-27.8245 32.26782,-44.41023 5.76676,-18.38275 3.63318,-39.0972 -6.01633,-58.41145 C 330.29641,74.576607 291.34953,45.790662 238.16903,27.776303 189.75742,11.377355 131.97246,5.0667321 76.010855,10.06721 c -5.620158,0.502192 -15.676128,1.628494 -19.149766,2.144836 -1.430393,0.212622 -2.751648,0.375705 -2.936122,0.362406 -0.497319,-0.03585 3.820226,-1.150975 9.273719,-2.395187 C 111.63441,-0.87131886 164.8235,-2.8698961 215.20972,4.4674592 290.20647,15.388655 352.04154,46.25667 380.41118,86.935899 c 14.44332,20.710261 19.72738,42.791251 15.61742,65.261981 -5.11603,27.97139 -25.24974,53.16136 -57.12369,71.46939 -25.76876,14.80129 -59.32734,24.79756 -96.46933,28.73583 -11.06364,1.17311 -25.01388,2.05493 -31.67946,2.0025 l -2.8867,-0.0227 z"
     id="path3762"
     inkscape:connector-curvature="0" /></svg>