<?xml version="1.0" standalone="no"?>
<!DOCTYPE svg PUBLIC "-//W3C//DTD SVG 20010904//EN"
 "http://www.w3.org/TR/2001/REC-SVG-20010904/DTD/svg10.dtd">
<svg version="1.0" xmlns="http://www.w3.org/2000/svg"
 width="1238.000000pt" height="985.000000pt" viewBox="0 0 1238.000000 985.000000"
 preserveAspectRatio="xMidYMid meet">
<metadata>
Created by potrace 1.15, written by Peter Selinger 2001-2017
</metadata>
<g transform="translate(0.000000,985.000000) scale(0.100000,-0.100000)"
fill="#000000" stroke="none">
<path d="M3875 9839 c-719 -55 -1378 -155 -2010 -305 -342 -81 -391 -100 -181
-69 274 39 612 75 976 102 187 14 364 17 865 18 642 0 758 -4 1220 -45 1089
-98 2175 -343 3065 -693 1336 -525 2297 -1228 2845 -2082 67 -103 188 -333
238 -451 80 -186 153 -445 182 -644 22 -149 30 -441 16 -575 -37 -343 -145
-661 -327 -962 -59 -96 -194 -291 -227 -325 -7 -7 -49 -56 -94 -109 -89 -104
-331 -332 -439 -414 -21 -16 -49 -39 -62 -50 -32 -28 -352 -251 -382 -267 -14
-7 -49 -28 -79 -47 -706 -442 -1796 -806 -2910 -970 -112 -16 -206 -33 -210
-37 -7 -7 319 2 599 17 1438 77 2714 417 3665 977 193 114 497 325 590 409 11
10 47 40 80 68 115 95 350 333 450 456 374 457 614 1017 632 1469 6 161 -8
166 -26 10 -30 -258 -111 -559 -211 -780 -347 -767 -1068 -1424 -2058 -1871
-706 -320 -1529 -537 -2457 -648 -192 -23 -466 -47 -630 -56 l-110 -5 210 44
c1104 229 1977 577 2683 1067 193 134 269 195 455 366 309 284 542 594 693
923 146 320 209 605 209 950 -1 303 -44 559 -145 855 -49 143 -214 482 -300
615 -246 379 -557 716 -959 1040 -500 402 -1154 766 -1921 1067 -874 344
-1952 587 -3025 682 -425 38 -528 43 -1082 48 -555 5 -848 -2 -1228 -32 -100
-8 -212 -16 -250 -19 -53 -5 -30 2 100 29 567 117 1271 199 1913 224 134 5
206 11 214 19 14 14 -394 15 -577 1z"/>
<path d="M5168 9838 c7 -7 84 -14 214 -19 1220 -48 2410 -270 3463 -646 1571
-562 2725 -1431 3231 -2433 140 -278 241 -612 275 -910 6 -58 16 -109 20 -115
15 -15 10 184 -6 280 -46 264 -160 588 -297 840 -322 591 -875 1144 -1609
1607 -671 424 -1526 784 -2424 1022 -710 188 -1469 313 -2255 371 -252 18
-630 21 -612 3z"/>
<path d="M3605 6603 c-49 -1 -157 -7 -240 -13 -1377 -97 -2532 -593 -3087
-1325 -156 -206 -267 -469 -276 -655 -5 -119 10 -112 32 15 117 686 832 1312
1891 1655 293 95 621 172 935 219 547 83 1236 90 1797 20 264 -33 260 -34 -87
-30 -353 3 -583 -7 -875 -40 -1108 -123 -2086 -548 -2603 -1130 -186 -211
-322 -449 -384 -671 -28 -105 -31 -128 -35 -318 -4 -138 -1 -228 7 -275 56
-322 261 -630 594 -897 203 -163 402 -284 708 -432 301 -146 482 -219 857
-347 251 -86 679 -210 1026 -297 250 -63 -369 24 -781 109 -646 133 -1336 369
-1882 643 -704 353 -1084 794 -1167 1353 -20 136 -35 155 -35 46 0 -281 182
-657 441 -913 250 -248 521 -421 994 -637 730 -334 1669 -582 2485 -657 214
-20 433 -29 400 -17 -14 5 -142 37 -285 71 -1143 273 -1980 589 -2536 958
-428 285 -669 584 -771 962 -29 108 -37 382 -14 502 62 328 206 589 482 874
397 409 1072 747 1854 928 673 155 1460 197 2175 116 289 -33 293 -33 126 10
-360 91 -773 148 -1231 170 -201 9 -294 10 -515 3z"/>
<path d="M6655 5958 c-113 -9 -243 -46 -364 -103 -94 -45 -233 -132 -282 -176
-14 -13 -47 -43 -73 -66 -164 -147 -308 -376 -361 -573 -21 -81 -30 -257 -17
-330 44 -233 210 -403 448 -456 109 -24 307 -15 424 19 118 34 181 61 282 118
550 315 816 940 559 1317 -129 190 -331 272 -616 250z m295 -60 c205 -62 334
-211 375 -432 14 -76 15 -102 5 -170 -24 -163 -84 -315 -180 -456 -186 -270
-454 -460 -765 -541 -116 -30 -288 -33 -385 -6 -148 40 -260 118 -331 228
-124 194 -102 516 54 773 57 94 154 211 246 298 290 271 687 395 981 306z"/>
<path d="M5140 5527 c-19 -11 -112 -71 -206 -133 -494 -325 -922 -748 -1280
-1264 l-32 -45 122 0 c201 -1 365 -53 517 -166 639 -473 847 -2093 480 -3733
-22 -99 -39 -181 -37 -183 2 -2 25 47 51 109 207 482 498 1017 847 1557 166
257 451 651 613 850 39 47 78 96 86 109 9 12 31 39 50 60 19 20 63 71 99 112
218 254 543 576 740 736 470 381 919 579 1248 550 l73 -7 -5 73 c-3 40 -8 114
-11 163 -10 140 -51 344 -100 491 -84 252 -215 476 -384 655 l-86 92 -35 -79
c-126 -289 -432 -698 -757 -1015 -302 -294 -624 -506 -888 -586 -80 -24 -107
-27 -235 -27 -132 0 -151 2 -212 26 -106 40 -175 86 -269 178 -170 168 -296
443 -361 790 -30 158 -33 504 -5 623 10 43 17 80 15 81 -1 2 -19 -6 -38 -17z
m2873 -119 c237 -266 386 -617 442 -1045 8 -63 15 -142 15 -177 l0 -63 -137
-6 c-307 -14 -588 -130 -963 -400 -260 -187 -480 -385 -756 -682 -284 -305
-471 -535 -742 -910 -375 -520 -720 -1095 -991 -1652 -30 -62 -56 -111 -58
-109 -2 2 10 84 26 182 120 719 142 1319 71 1910 -113 928 -434 1497 -922
1634 -41 12 -122 23 -185 27 -62 3 -113 9 -113 12 0 12 203 278 299 390 170
203 415 437 651 625 122 97 422 306 461 321 14 5 15 -1 7 -52 -14 -85 -3 -491
15 -588 69 -361 203 -646 385 -816 133 -124 247 -181 405 -200 343 -42 777
177 1236 626 311 304 601 682 733 955 23 49 46 90 50 90 3 0 35 -33 71 -72z"/>
</g>
</svg>
